<svg width="24" height="24" viewBox="0 0 24 24" fill="none" xmlns="http://www.w3.org/2000/svg">
<g clip-path="url(#clip0_885_3167)">
<path d="M12 21C10.7369 19.9226 9.56619 18.7415 8.5 17.469C6.9 15.558 5 12.712 5 9.99997C4.99931 8.61493 5.40951 7.26082 6.17869 6.109C6.94788 4.95718 8.04147 4.05943 9.32107 3.52937C10.6007 2.99931 12.0087 2.86076 13.3671 3.13126C14.7255 3.40176 15.9731 4.06915 16.952 5.04897C17.6038 5.69783 18.1203 6.46951 18.4719 7.31934C18.8234 8.16918 19.0029 9.0803 19 9.99997C19 12.712 17.1 15.558 15.5 17.469C14.4338 18.7415 13.2631 19.9226 12 21ZM12 6.99997C11.2044 6.99997 10.4413 7.31604 9.87868 7.87865C9.31607 8.44126 9 9.20432 9 9.99997C9 10.7956 9.31607 11.5587 9.87868 12.1213C10.4413 12.6839 11.2044 13 12 13C12.7957 13 13.5587 12.6839 14.1213 12.1213C14.6839 11.5587 15 10.7956 15 9.99997C15 9.20432 14.6839 8.44126 14.1213 7.87865C13.5587 7.31604 12.7957 6.99997 12 6.99997Z" fill="#D4D4D4"/>
</g>
<defs>
<clipPath id="clip0_885_3167">
<rect width="24" height="24" rx="12" fill="white"/>
</clipPath>
</defs>
</svg>
