<svg width="180" height="44" viewBox="0 0 180 44" fill="none" xmlns="http://www.w3.org/2000/svg">
<path d="M55.8523 15.5881V12.5455H70.1875V15.5881H64.8438V30H61.196V15.5881H55.8523ZM71.1207 30V16.9091H74.6406V19.1932H74.777C75.0156 18.3807 75.4162 17.767 75.9787 17.3523C76.5412 16.9318 77.1889 16.7216 77.9219 16.7216C78.1037 16.7216 78.2997 16.733 78.5099 16.7557C78.7202 16.7784 78.9048 16.8097 79.0639 16.8494V20.071C78.8935 20.0199 78.6577 19.9744 78.3565 19.9347C78.0554 19.8949 77.7798 19.875 77.5298 19.875C76.9957 19.875 76.5185 19.9915 76.098 20.2244C75.6832 20.4517 75.3537 20.7699 75.1094 21.179C74.8707 21.5881 74.7514 22.0597 74.7514 22.5938V30H71.1207ZM89.3359 24.4261V16.9091H92.9666V30H89.4808V27.6222H89.3445C89.049 28.3892 88.5575 29.0057 87.87 29.4716C87.1882 29.9375 86.3558 30.1705 85.3729 30.1705C84.4979 30.1705 83.728 29.9716 83.0632 29.5739C82.3984 29.1761 81.8786 28.6108 81.5036 27.8778C81.1342 27.1449 80.9467 26.267 80.9411 25.2443V16.9091H84.5717V24.5966C84.5774 25.3693 84.7848 25.9801 85.1939 26.429C85.603 26.8778 86.1513 27.1023 86.8388 27.1023C87.2763 27.1023 87.6854 27.0028 88.0661 26.804C88.4467 26.5994 88.7536 26.2983 88.9865 25.9006C89.2251 25.5028 89.3416 25.0114 89.3359 24.4261ZM106.763 20.642L103.439 20.8466C103.382 20.5625 103.26 20.3068 103.072 20.0795C102.885 19.8466 102.638 19.6619 102.331 19.5256C102.03 19.3835 101.669 19.3125 101.249 19.3125C100.686 19.3125 100.212 19.4318 99.8253 19.6705C99.4389 19.9034 99.2457 20.2159 99.2457 20.608C99.2457 20.9205 99.3707 21.1847 99.6207 21.4006C99.8707 21.6165 100.3 21.7898 100.908 21.9205L103.277 22.3977C104.55 22.6591 105.499 23.0795 106.124 23.6591C106.749 24.2386 107.061 25 107.061 25.9432C107.061 26.8011 106.808 27.554 106.303 28.2017C105.803 28.8494 105.115 29.3551 104.24 29.7188C103.371 30.0767 102.368 30.2557 101.232 30.2557C99.4986 30.2557 98.1179 29.8949 97.0895 29.1733C96.0668 28.446 95.4673 27.4574 95.2912 26.2074L98.8622 26.0199C98.9702 26.5483 99.2315 26.9517 99.6463 27.2301C100.061 27.5028 100.592 27.6392 101.24 27.6392C101.876 27.6392 102.388 27.517 102.774 27.2727C103.166 27.0227 103.365 26.7017 103.371 26.3097C103.365 25.9801 103.226 25.7102 102.953 25.5C102.68 25.2841 102.26 25.1193 101.692 25.0057L99.4247 24.554C98.1463 24.2983 97.1946 23.8551 96.5696 23.2244C95.9503 22.5937 95.6406 21.7898 95.6406 20.8125C95.6406 19.9716 95.8679 19.2472 96.3224 18.6392C96.7827 18.0312 97.4276 17.5625 98.2571 17.233C99.0923 16.9034 100.07 16.7386 101.189 16.7386C102.842 16.7386 104.143 17.0881 105.092 17.7869C106.047 18.4858 106.604 19.4375 106.763 20.642ZM116.31 16.9091V19.6364H108.427V16.9091H116.31ZM110.217 13.7727H113.847V25.9773C113.847 26.3125 113.898 26.5739 114.001 26.7614C114.103 26.9432 114.245 27.071 114.427 27.1449C114.614 27.2187 114.83 27.2557 115.075 27.2557C115.245 27.2557 115.415 27.2415 115.586 27.2131C115.756 27.179 115.887 27.1534 115.978 27.1364L116.549 29.8381C116.367 29.8949 116.112 29.9602 115.782 30.0341C115.452 30.1136 115.052 30.1619 114.58 30.179C113.705 30.2131 112.938 30.0966 112.279 29.8295C111.626 29.5625 111.117 29.1477 110.754 28.5852C110.39 28.0227 110.211 27.3125 110.217 26.4545V13.7727ZM124.45 30.2557C123.109 30.2557 121.955 29.9716 120.989 29.4034C120.029 28.8295 119.29 28.0341 118.773 27.017C118.262 26 118.006 24.8295 118.006 23.5057C118.006 22.1648 118.265 20.9886 118.782 19.9773C119.305 18.9602 120.046 18.1676 121.006 17.5994C121.967 17.0256 123.109 16.7386 124.433 16.7386C125.575 16.7386 126.575 16.946 127.433 17.3608C128.29 17.7756 128.969 18.358 129.469 19.108C129.969 19.858 130.245 20.7386 130.296 21.75H126.87C126.773 21.0966 126.518 20.571 126.103 20.1733C125.694 19.7699 125.157 19.5682 124.492 19.5682C123.93 19.5682 123.438 19.7216 123.018 20.0284C122.603 20.3295 122.279 20.7699 122.046 21.3494C121.813 21.929 121.697 22.6307 121.697 23.4545C121.697 24.2898 121.81 25 122.038 25.5852C122.271 26.1705 122.597 26.6165 123.018 26.9233C123.438 27.2301 123.93 27.3835 124.492 27.3835C124.907 27.3835 125.279 27.2983 125.609 27.1278C125.944 26.9574 126.219 26.7102 126.435 26.3864C126.657 26.0568 126.802 25.6619 126.87 25.2017H130.296C130.239 26.2017 129.967 27.0824 129.478 27.8438C128.995 28.5994 128.327 29.1903 127.475 29.6165C126.623 30.0426 125.614 30.2557 124.45 30.2557ZM132.621 30V16.9091H136.141V19.1932H136.277C136.516 18.3807 136.916 17.767 137.479 17.3523C138.041 16.9318 138.689 16.7216 139.422 16.7216C139.604 16.7216 139.8 16.733 140.01 16.7557C140.22 16.7784 140.405 16.8097 140.564 16.8494V20.071C140.393 20.0199 140.158 19.9744 139.857 19.9347C139.555 19.8949 139.28 19.875 139.03 19.875C138.496 19.875 138.018 19.9915 137.598 20.2244C137.183 20.4517 136.854 20.7699 136.609 21.179C136.371 21.5881 136.251 22.0597 136.251 22.5938V30H132.621ZM145.081 34.9091C144.621 34.9091 144.189 34.8722 143.786 34.7983C143.388 34.7301 143.058 34.642 142.797 34.5341L143.615 31.8239C144.041 31.9545 144.425 32.0256 144.766 32.0369C145.112 32.0483 145.411 31.9688 145.661 31.7983C145.916 31.6278 146.124 31.3381 146.283 30.929L146.496 30.375L141.8 16.9091H145.618L148.328 26.5227H148.464L151.2 16.9091H155.044L149.956 31.4148C149.712 32.1193 149.379 32.733 148.959 33.2557C148.544 33.7841 148.018 34.1903 147.382 34.4744C146.746 34.7642 145.979 34.9091 145.081 34.9091ZM156.902 34.9091V16.9091H160.482V19.108H160.643C160.803 18.7557 161.033 18.3977 161.334 18.0341C161.641 17.6648 162.038 17.358 162.527 17.1136C163.021 16.8636 163.635 16.7386 164.368 16.7386C165.322 16.7386 166.203 16.9886 167.01 17.4886C167.817 17.983 168.462 18.7301 168.945 19.7301C169.428 20.7244 169.669 21.9716 169.669 23.4716C169.669 24.9318 169.433 26.1648 168.962 27.1705C168.496 28.1705 167.859 28.929 167.053 29.446C166.251 29.9574 165.354 30.2131 164.359 30.2131C163.655 30.2131 163.055 30.0966 162.561 29.8636C162.072 29.6307 161.672 29.3381 161.359 28.9858C161.047 28.6278 160.808 28.267 160.643 27.9034H160.533V34.9091H156.902ZM160.456 23.4545C160.456 24.233 160.564 24.9119 160.78 25.4915C160.996 26.071 161.308 26.5227 161.717 26.8466C162.126 27.1648 162.624 27.3239 163.209 27.3239C163.8 27.3239 164.3 27.1619 164.709 26.8381C165.118 26.5085 165.428 26.054 165.638 25.4744C165.854 24.8892 165.962 24.2159 165.962 23.4545C165.962 22.6989 165.857 22.0341 165.646 21.4602C165.436 20.8864 165.126 20.4375 164.717 20.1136C164.308 19.7898 163.805 19.6278 163.209 19.6278C162.618 19.6278 162.118 19.7841 161.709 20.0966C161.305 20.4091 160.996 20.8523 160.78 21.4261C160.564 22 160.456 22.6761 160.456 23.4545ZM179.053 16.9091V19.6364H171.169V16.9091H179.053ZM172.959 13.7727H176.589V25.9773C176.589 26.3125 176.641 26.5739 176.743 26.7614C176.845 26.9432 176.987 27.071 177.169 27.1449C177.357 27.2187 177.572 27.2557 177.817 27.2557C177.987 27.2557 178.158 27.2415 178.328 27.2131C178.499 27.179 178.629 27.1534 178.72 27.1364L179.291 29.8381C179.109 29.8949 178.854 29.9602 178.524 30.0341C178.195 30.1136 177.794 30.1619 177.322 30.179C176.447 30.2131 175.68 30.0966 175.021 29.8295C174.368 29.5625 173.859 29.1477 173.496 28.5852C173.132 28.0227 172.953 27.3125 172.959 26.4545V13.7727Z" fill="#ECF1F0"/>
<g clip-path="url(#clip0_1210_3673)">
<path fill-rule="evenodd" clip-rule="evenodd" d="M0 21.0205L1.55218 23.0107L5.62169 28.2282V12.782H0V21.0205Z" fill="#ECF1F0"/>
<path fill-rule="evenodd" clip-rule="evenodd" d="M0 9.06136H5.62169V6.0104H11.2429V35.4354L17.9233 44V0H0V9.06136Z" fill="#ECF1F0"/>
<path fill-rule="evenodd" clip-rule="evenodd" d="M21.0771 0V43.9996L27.7575 35.4345V6.0104H33.3783V9.06136H39V0H21.0771Z" fill="#ECF1F0"/>
<path fill-rule="evenodd" clip-rule="evenodd" d="M33.3783 28.2282L37.4478 23.0107L39 21.0205V12.782H33.3783V28.2282Z" fill="#ECF1F0"/>
</g>
<defs>
<clipPath id="clip0_1210_3673">
<rect width="39" height="44" fill="white"/>
</clipPath>
</defs>
</svg>
