<svg width="225" height="48" viewBox="0 0 225 48" fill="none" xmlns="http://www.w3.org/2000/svg">
<g clip-path="url(#clip0_1221_1895)">
<path d="M0 14.4678H4.38012V18.2355H4.45697C4.91803 16.8038 7.9918 13.865 12.4488 13.865C16.1373 13.865 18.5963 15.3721 20.21 18.3862C20.993 17.021 22.1308 15.8835 23.5075 15.0894C24.8843 14.2953 26.4509 13.8728 28.0482 13.865C35.6557 13.865 37.5 19.2151 37.5 24.6405V38.8069H32.8125V25.2433C32.8125 21.551 32.0441 18.1601 27.5102 18.1601C22.9764 18.1601 21.209 21.1743 21.209 25.4694V38.8069H16.5215V26.0722C16.5215 21.4757 15.8299 18.1601 11.2961 18.1601C7.91496 18.1601 4.84119 20.6468 4.84119 26.1476V38.8069H0V14.4678Z" fill="#D4D4D4"/>
<path d="M45.5686 28.3328C45.5686 32.6279 49.5645 35.416 53.9446 35.416C56.8647 35.416 58.9395 33.9843 60.7838 31.799L64.3186 34.4364C61.7059 37.7519 58.0942 39.4097 53.3299 39.4097C45.4918 39.4097 40.5737 33.8336 40.5737 26.5997C40.5737 19.3657 45.9528 13.7896 53.4067 13.7896C62.167 13.7896 65.4713 20.3453 65.4713 26.5997V28.2574L45.5686 28.3328ZM60.3996 24.6405C60.3227 20.5714 58.0174 17.5573 53.253 17.5573C51.2924 17.5538 49.4046 18.2853 47.9761 19.6021C46.5475 20.9189 45.6862 22.7214 45.5686 24.6405H60.3996Z" fill="#D4D4D4"/>
<path d="M81.7623 18.4615H75V29.4631C75 32.1758 75 35.0392 78.5348 35.0392C79.7102 35.0873 80.8773 34.8271 81.916 34.2857V38.5055C80.5751 39.0472 79.1398 39.3287 77.6896 39.3344C70.3893 39.3344 70.3125 34.9639 70.3125 31.0455V18.4615H64.8566V14.4678H70.3125V7.61066H75V14.4678H81.7623V18.4615Z" fill="#D4D4D4"/>
<path d="M85.2971 17.482C88.0182 15.1436 91.5151 13.8577 95.1332 13.865C102.433 13.865 105.507 17.7834 105.507 22.0032V34.4365C105.507 35.9213 105.584 37.4051 105.738 38.8823H101.588C101.511 37.6766 101.434 36.3956 101.434 35.19H101.358C99.2828 38.3548 96.4396 39.4851 92.6742 39.4851C88.0635 39.4851 84.0676 36.9231 84.0676 32.1759C84.0676 25.9215 90.2152 23.7363 97.7459 23.7363H101.204V22.6813C101.204 20.1947 99.3596 17.5573 95.2869 17.5573C91.6752 17.5573 89.9846 19.0644 88.2172 20.3454L85.2971 17.482ZM98.668 27.1272C94.2111 27.1272 88.7551 27.8807 88.7551 31.7991C88.7551 34.5872 90.8299 35.7175 94.0574 35.7175C99.2828 35.7175 101.127 31.9498 101.127 28.6343V27.1272H98.668Z" fill="#D4D4D4"/>
<path d="M123.719 20.5714C123.125 19.8088 122.357 19.1934 121.476 18.7747C120.595 18.3559 119.626 18.1454 118.648 18.1601C116.419 18.1601 114.498 19.1397 114.498 20.8728C114.498 23.8116 118.724 24.1884 120.799 24.6405C124.872 25.6201 128.023 27.1272 128.023 31.7237C128.023 37.2245 122.874 39.4097 117.956 39.4097C113.883 39.4097 110.809 38.3548 108.35 35.1146L111.885 32.2512C113.422 33.7582 115.19 35.1146 117.879 35.1146C120.261 35.1146 122.874 34.135 122.874 32.0251C122.874 29.237 118.955 28.7096 116.88 28.2575C112.884 27.2779 109.273 25.9969 109.273 21.325C109.273 16.2763 114.037 13.865 118.724 13.865C122.029 13.865 125.41 14.9953 127.177 17.8587L123.719 20.5714Z" fill="#D4D4D4"/>
<path d="M131.096 14.4678H135.784V17.9341H135.861C136.879 16.6516 138.185 15.617 139.678 14.9112C141.171 14.2054 142.81 13.8473 144.467 13.865C152.152 13.865 157.07 19.4411 157.07 26.6751C157.07 33.909 152.075 39.4851 144.467 39.4851C140.932 39.4851 137.474 37.9027 135.861 35.3407H135.784V48H131.096V14.4678ZM135.861 26.5997C135.861 31.4977 139.011 35.0393 144.006 35.0393C149.001 35.0393 152.152 31.573 152.152 26.5997C152.152 21.6264 149.001 18.1601 143.929 18.1601C138.858 18.1601 135.861 21.7017 135.861 26.5997V26.5997Z" fill="#D4D4D4"/>
<path d="M160.835 0H165.523V38.8069H160.835V0Z" fill="#D4D4D4"/>
<path d="M180.968 13.865C184.447 13.8849 187.775 15.2564 190.224 17.6789C192.672 20.1013 194.042 23.377 194.032 26.7878C194.021 30.1987 192.633 33.4665 190.169 35.8748C187.706 38.2832 184.37 39.6356 180.891 39.6356C177.413 39.6356 174.076 38.2832 171.613 35.8748C169.15 33.4665 167.761 30.1987 167.751 26.7878C167.741 23.377 169.11 20.1013 171.559 17.6789C174.008 15.2564 177.336 13.8849 180.814 13.865H180.968ZM180.968 35.1146C185.963 35.1146 189.114 31.573 189.114 26.675C189.114 21.7771 185.963 18.2355 180.968 18.2355C175.973 18.2355 172.823 21.7771 172.823 26.675C172.823 31.573 175.973 35.1146 180.968 35.1146Z" fill="#D4D4D4"/>
<path d="M198.796 2.33594C199.48 2.33594 200.149 2.53481 200.717 2.90741C201.286 3.28 201.729 3.80959 201.991 4.42919C202.253 5.0488 202.321 5.73059 202.188 6.38836C202.054 7.04613 201.725 7.65033 201.241 8.12456C200.758 8.59878 200.142 8.92173 199.471 9.05257C198.8 9.18341 198.105 9.11626 197.473 8.85961C196.841 8.60296 196.301 8.16834 195.921 7.61071C195.541 7.05308 195.338 6.39749 195.338 5.72683C195.36 4.83413 195.731 3.98383 196.375 3.35242C197.019 2.72101 197.886 2.357 198.796 2.33594V2.33594ZM196.414 14.4678H201.101V38.8069H196.414V14.4678Z" fill="#D4D4D4"/>
<path d="M219.775 18.4615H213.012V29.4631C213.012 32.1758 213.012 35.0392 216.547 35.0392C217.722 35.0873 218.89 34.8271 219.928 34.2857V38.5055C218.587 39.0472 217.152 39.3287 215.702 39.3344C208.402 39.3344 208.325 34.9639 208.325 31.0455V18.4615H202.869V14.4678H208.325V7.61066H213.012V14.4678H219.775V18.4615Z" fill="#D4D4D4"/>
<path d="M221.311 0.301392C222.041 0.301392 222.754 0.513522 223.361 0.910958C223.967 1.30839 224.44 1.87329 224.719 2.5342C224.998 3.19511 225.071 3.92236 224.929 4.62398C224.787 5.3256 224.435 5.97008 223.92 6.47592C223.404 6.98176 222.747 7.32624 222.031 7.4658C221.316 7.60536 220.574 7.53373 219.9 7.25998C219.226 6.98622 218.65 6.52262 218.245 5.92782C217.839 5.33301 217.623 4.63371 217.623 3.91835V3.91835C217.637 2.96331 218.03 2.05123 218.719 1.37585C219.407 0.70047 220.338 0.315023 221.311 0.301392V0.301392ZM221.311 7.00783C221.726 7.01186 222.138 6.93469 222.522 6.78086C222.906 6.62703 223.255 6.39961 223.548 6.11192C223.842 5.82423 224.074 5.48204 224.231 5.10539C224.387 4.72874 224.466 4.32518 224.462 3.91835C224.462 3.09896 224.13 2.31314 223.539 1.73375C222.948 1.15436 222.147 0.828864 221.311 0.828864C220.476 0.828864 219.674 1.15436 219.084 1.73375C218.493 2.31314 218.161 3.09896 218.161 3.91835C218.165 4.73651 218.498 5.52003 219.088 6.09856C219.678 6.67709 220.477 7.00387 221.311 7.00783V7.00783ZM220.543 5.95288H220.005V1.80846H221.619C222.541 1.80846 222.925 2.18522 222.925 2.93875C222.924 3.23314 222.815 3.51729 222.617 3.73884C222.419 3.96039 222.147 4.10443 221.849 4.1444L223.156 5.95288H222.541L221.311 4.1444H220.543V5.95288ZM220.543 3.69229H221.235C221.849 3.69229 222.464 3.69229 222.464 2.93875C222.464 2.41128 222.003 2.26057 221.542 2.26057H220.543V3.69229Z" fill="#D4D4D4"/>
</g>
<defs>
<clipPath id="clip0_1221_1895">
<rect width="225" height="48" fill="white"/>
</clipPath>
</defs>
</svg>
